<svg width="19" height="26" viewBox="0 0 19 26" fill="none" xmlns="http://www.w3.org/2000/svg">
<path d="M9.13468 1C4.64366 1 1 4.46797 1 8.73925C1 13.654 6.42312 21.4423 8.41443 24.1324C8.49708 24.246 8.60542 24.3384 8.73059 24.4021C8.85577 24.4658 8.99423 24.499 9.13468 24.499C9.27514 24.499 9.4136 24.4658 9.53878 24.4021C9.66395 24.3384 9.77229 24.246 9.85494 24.1324C11.8462 21.4435 17.2694 13.6579 17.2694 8.73925C17.2694 4.46797 13.6257 1 9.13468 1Z" stroke="#E4BC7D" stroke-width="1.5" stroke-linecap="round" stroke-linejoin="round"/>
<path d="M9.13478 11.8462C10.6323 11.8462 11.8463 10.6322 11.8463 9.13469C11.8463 7.63713 10.6323 6.42313 9.13478 6.42313C7.63723 6.42313 6.42322 7.63713 6.42322 9.13469C6.42322 10.6322 7.63723 11.8462 9.13478 11.8462Z" stroke="#E4BC7D" stroke-width="1.5" stroke-linecap="round" stroke-linejoin="round"/>
</svg>
