<svg width="301" height="183" viewBox="0 0 301 183" fill="none" xmlns="http://www.w3.org/2000/svg">
<path d="M170.674 13.9515C162.559 4.65051 151.869 0 138.603 0C129.806 0 122.031 2.41812 115.281 7.25623C108.529 12.0943 103.414 18.4857 99.9324 26.4323C96.4507 34.3789 94.7098 43.1659 94.7098 52.7934C94.7098 68.4989 98.6485 81.1186 106.529 90.6541C114.41 100.188 125.241 104.955 139.024 104.955C142.137 104.955 145.121 104.656 147.974 104.062L145.84 100.37L146.391 99.3698C144.01 100.524 141.416 101.101 138.603 101.101C133.284 101.101 128.711 98.7995 124.878 94.1959C121.043 89.5923 118.209 83.5855 116.374 76.1773C114.541 68.7691 113.623 60.4623 113.623 51.2513C113.623 44.7568 114.082 38.8418 115 33.5141C115.917 28.1864 117.152 23.7103 118.704 20.0878C120.258 16.4653 122.116 13.4169 124.28 10.9387C126.443 8.46247 128.76 6.66155 131.232 5.5416C133.701 4.41977 136.301 3.85886 139.028 3.85886C146.837 3.85886 152.941 7.80964 157.339 15.7074C159.648 19.8533 161.351 25.0741 162.448 31.3717H180.215C178.197 24.7327 175.017 18.9266 170.674 13.9515Z" fill="#E4BC7D"/>
<path d="M150.313 100.21L179.896 38.8025L166.632 38.2041H166.086C164.521 38.2041 163.103 38.5605 161.829 39.2678C160.445 40.1101 159.346 41.1756 158.526 42.4607C157.707 43.7476 157.042 45.299 156.534 47.1187C156.025 48.9384 155.679 50.6774 155.498 52.3414C155.315 54.0053 155.224 55.7462 155.224 57.564H152.987V35.3433H194.852L195.888 37.2717L165.159 98.6814L180.715 99.2799H181.261C182.934 99.2367 184.428 98.8596 185.736 98.1486C187.192 97.3495 188.309 96.3083 189.093 95.0214C189.875 93.7364 190.52 92.1718 191.03 90.3315C191.54 88.4912 191.867 86.7615 192.012 85.1426C192.157 83.5236 192.231 81.7827 192.231 79.9199H194.469V102.141H151.295L150.313 100.21Z" fill="#E4BC7D"/>
<path d="M88.564 76.4099C87.6162 73.8229 86.8855 71.6918 86.0604 69.5945C81.4062 57.7703 75.6625 46.5952 66.8544 37.1797C65.7952 36.0485 65.0286 34.4145 64.6944 32.8912C64.0355 29.8803 66.7619 27.2577 69.6847 28.2482C71.6219 28.9048 73.7347 30.1598 74.9016 31.7657C84.5253 45.0081 90.7807 59.6913 93.2126 75.9033C93.5619 78.2258 93.8489 80.5726 93.9055 82.9138C93.9244 83.6942 93.1314 84.4934 92.7084 85.285C92.0929 84.6904 91.0375 84.1595 90.9412 83.4897C90.4956 80.4225 88.4507 79.5952 85.7828 78.9199C71.841 75.3856 57.9406 71.6899 44.0252 68.0524C40.67 67.1745 40.4793 66.8406 41.7293 63.6102C44.1989 57.2244 43.3039 58.0704 49.4366 59.7044C57.0532 61.7342 64.6397 63.8728 72.2639 65.8744C74.4541 66.4504 75.8815 67.469 76.2478 69.8421C76.6085 72.1683 78.0264 73.7647 80.3507 74.3876C82.9223 75.0779 85.5223 75.667 88.564 76.4099ZM43.9629 61.8636C43.8685 61.9443 43.7363 62.0062 43.6854 62.1094C43.54 62.3983 43.421 62.7022 43.3021 63.0042C42.1182 66.0189 42.207 66.2046 45.2921 67.0169C52.3292 68.8704 59.3662 70.7276 66.407 72.5679C69.0465 73.2582 71.6956 73.9073 74.6165 74.6446C74.5617 73.5453 74.5221 72.763 74.4843 71.9826C73.9575 73.6878 72.8379 73.1194 71.8504 72.8624C63.6692 70.7238 55.4899 68.5852 47.3124 66.4335C43.5305 65.4392 43.5343 65.428 43.9629 61.8636ZM89.746 65.5912C86.9705 55.6992 83.4038 46.2912 77.6318 38.3015C81.5478 47.1223 85.6261 56.3089 89.746 65.5912ZM71.5445 32.4992C70.5552 31.852 69.883 31.0809 69.411 31.1879C68.8049 31.3248 68.3612 32.1652 67.8476 32.7018C68.4159 33.1951 68.9446 33.9981 69.5658 34.0787C70.0378 34.1406 70.6269 33.2739 71.5445 32.4992Z" fill="#E4BC7D"/>
<path d="M212.351 76.4117C215.389 75.6801 217.932 75.1173 220.449 74.4495C222.836 73.8154 224.333 72.2246 224.709 69.8046C225.064 67.529 226.4 66.486 228.536 65.9195C237.3 63.5989 246.048 61.2164 254.783 58.7833C256.474 58.3124 257.407 58.7664 257.958 60.3704C258.425 61.7286 259.02 63.0436 259.512 64.3943C260.217 66.3284 259.709 67.3321 257.669 67.8705C248.523 70.2811 239.37 72.6598 230.22 75.0535C224.437 76.5656 218.665 78.1282 212.863 79.5652C211.609 79.8766 210.899 80.4094 210.652 81.6569C210.512 82.3567 210.363 83.122 209.97 83.6886C209.532 84.3208 208.813 84.7616 208.216 85.285C207.801 84.5553 207.051 83.8312 207.036 83.0939C207.002 81.2104 207.211 79.3082 207.47 77.4341C209.683 61.4078 215.632 46.8184 224.722 33.4522C226.287 31.1522 227.939 28.9592 230.87 28.2445C234.321 27.404 237.123 29.9291 236.16 33.3021C235.68 34.9792 234.612 36.6319 233.415 37.9413C223.376 48.9213 217.487 62.115 212.351 76.4117ZM256.854 61.5034C257.418 64.9289 257.369 65.2197 255.053 65.8575C246.26 68.2794 237.45 70.6413 228.623 72.9412C228.045 73.0913 227.276 72.521 226.448 72.2339C226.423 72.7742 226.387 73.5659 226.34 74.6258C227.377 74.3801 228.13 74.2168 228.876 74.0217C237.452 71.7706 245.99 69.3712 254.616 67.3283C258.317 66.4522 259.391 66.319 256.854 61.5034ZM211.203 65.5743C215.31 56.3201 219.392 47.1223 223.311 38.2884C217.547 46.2875 213.971 55.6879 211.203 65.5743ZM233.832 32.6211C232.769 31.8763 232.116 31.0847 231.663 31.1841C231.034 31.3229 230.267 32.0639 230.12 32.6793C230.031 33.0526 230.985 34.0618 231.498 34.0843C232.095 34.1106 232.724 33.364 233.832 32.6211Z" fill="#E4BC7D"/>
<path d="M221.168 116.602C218.355 116.638 217.949 117.034 217.925 119.668C217.913 120.844 217.883 122.024 217.938 123.198C218.061 125.853 218.4 128.59 214.388 129.196C214.534 129.338 214.679 129.483 214.824 129.625C218.939 129.625 223.053 129.625 227.418 129.625C227.418 125.843 227.567 122.013 227.292 118.212C227.237 117.46 225.541 116.826 224.35 115.951C224.49 114.747 225.607 114.16 227.512 114.31C229.837 114.494 232.201 114.496 234.523 114.293C236.502 114.122 237.822 114.706 238.177 116.42C234.559 117.047 234.561 117.047 234.566 120.767C234.57 122.532 234.642 124.301 234.549 126.063C234.451 127.931 234.727 129.569 236.73 130.616C234.723 131.68 234.463 133.319 234.544 135.203C234.648 137.617 234.566 140.041 234.57 142.459C234.576 145.383 234.906 145.759 237.839 146.183C237.833 147.822 236.549 148.511 234.697 148.362C232.265 148.167 229.795 148.19 227.36 148.361C225.666 148.481 224.55 147.886 224.193 146.143C227.256 145.836 227.492 145.562 227.488 142.386C227.484 139.317 227.488 136.248 227.488 132.987C224.342 132.987 221.304 132.987 217.983 132.987C217.983 136.792 217.842 140.624 218.108 144.427C218.159 145.155 219.818 145.772 221.048 146.668C220.987 147.728 219.833 148.492 218.13 148.394C215.629 148.252 213.106 148.242 210.606 148.394C208.994 148.492 207.851 147.914 207.538 146.353C210.865 145.342 210.865 145.342 210.863 141.718C210.861 139.429 210.82 137.14 210.872 134.854C210.912 133.105 210.638 131.567 208.448 130.721C210.857 129.442 210.978 127.494 210.878 125.425C210.806 123.924 210.865 122.418 210.863 120.915C210.859 117.07 210.746 116.936 207.115 116.475C207.534 114.771 208.722 114.175 210.58 114.287C213.04 114.436 215.527 114.449 217.985 114.286C219.837 114.16 220.836 114.681 221.168 116.602Z" fill="white"/>
<path d="M118.071 123.084C116.744 125.472 115.407 127.873 113.984 130.434C117.362 131.436 117.537 135.394 119.472 137.985C118.961 138.921 118.292 139.885 117.881 140.949C116.125 145.468 111.365 148.697 106.486 148.471C104.798 148.393 103.123 148.042 101.437 147.849C101.073 147.807 100.684 147.869 100.321 147.95C99.8738 148.051 99.4471 148.333 99.0072 148.344C97.1644 148.387 95.3083 148.488 93.4806 148.312C92.2798 148.196 91.045 147.712 91.1582 146.027C94.1679 146.1 94.8136 145.461 94.8155 142.54C94.8174 139.99 94.757 137.439 94.8401 134.891C94.8986 133.139 94.6683 131.608 92.4384 130.625C95.0327 129.502 94.8722 127.517 94.8269 125.553C94.7891 123.919 94.8174 122.285 94.8193 120.649C94.8231 117.057 94.6626 116.869 91.2564 116.492C91.5 114.822 92.7367 114.072 94.6097 114.291C95.6633 114.415 96.8226 114.057 97.795 114.361C100.818 115.306 103.695 113.766 106.658 114.064C110.104 114.411 113.312 115.37 115.472 118.233C116.548 119.657 117.19 121.401 118.071 123.084ZM102.442 131.939C102.332 132.274 102.226 132.454 102.225 132.633C102.209 135.831 102.164 139.03 102.215 142.226C102.249 144.389 103.503 145.783 105.296 145.853C107.551 145.941 109.726 144.372 109.82 142.363C109.937 139.891 109.903 137.403 109.79 134.929C109.711 133.197 108.57 132.162 106.898 131.974C105.425 131.807 103.918 131.939 102.442 131.939ZM98.1348 129.194C100.689 129.194 103.244 129.222 105.799 129.187C108.114 129.155 109.054 128.357 109.245 126.05C109.401 124.165 109.369 122.259 109.322 120.364C109.273 118.36 107.774 116.978 105.763 116.948C103.459 116.912 102.041 118.293 102.234 120.865C102.502 124.45 102.508 127.74 98.1348 129.194Z" fill="white"/>
<path d="M60.1441 146.477C63.6144 145.757 63.6144 145.757 63.6144 142.207C63.6144 139.986 63.5691 137.763 63.6277 135.542C63.6786 133.599 63.7617 131.689 61.3374 130.663C63.3973 129.607 63.7315 128.061 63.6352 126.234C63.5332 124.279 63.605 122.315 63.6107 120.354C63.6201 117.139 63.2406 116.719 60.1328 116.55C60.2007 114.826 61.6678 114.124 63.6994 114.304C66.2729 114.533 68.8804 114.329 71.4728 114.394C74.2672 114.464 77.1352 114.271 79.8315 114.843C82.9148 115.499 84.7953 117.827 85.6922 120.889C86.0302 122.039 86.5985 123.119 87.1291 124.393C85.1428 126.841 85.5732 131.329 80.9417 132.514C84.6386 134.338 85.5902 137.215 85.4203 140.673C85.3825 141.448 85.443 142.245 85.5846 143.008C86.0075 145.297 87.046 146.053 89.5817 146.016C89.5855 147.665 88.7113 148.473 87.1385 148.374C85.4845 148.271 83.7833 147.991 82.1784 148.25C80.0335 148.595 79.0725 147.59 78.5759 145.849C78.2927 144.86 78.2474 143.794 78.1737 142.757C78.0906 141.586 78.1945 140.395 78.0472 139.236C77.4864 134.84 75.7871 133.537 71.048 133.981C71.048 137.448 70.9045 140.956 71.1122 144.442C71.2066 146.016 72.5603 146.458 74.0689 145.875C74.2521 147.676 73.5478 148.276 71.7352 148.259C68.8917 148.235 66.0463 148.379 63.2028 148.353C61.8925 148.346 60.416 148.351 60.1441 146.477ZM67.2982 130.802C70.3229 130.802 73.2476 130.976 76.1232 130.685C76.8879 130.608 78.0151 129.143 78.0982 128.237C78.3588 125.395 78.3172 122.508 78.1681 119.649C78.0699 117.741 76.5235 116.773 74.3408 116.897C72.1468 117.023 71.1216 117.932 71.031 119.955C70.9668 121.386 70.8648 122.84 71.0366 124.253C71.384 127.1 70.9082 129.387 67.7362 130.295C67.5927 130.336 67.5002 130.56 67.2982 130.802Z" fill="white"/>
<path d="M27.1303 122.983C25.7161 125.468 24.3227 127.918 22.8707 130.471C26.4846 131.376 26.3902 135.596 28.5313 137.958C27.9856 138.861 27.2549 139.684 26.9453 140.643C25.3706 145.505 21.6453 147.672 16.9458 148.331C14.9274 148.614 12.7957 148.096 10.715 147.972C10.1561 147.938 9.5916 148.002 9.03083 148.044C8.19817 148.104 7.36928 148.209 6.53474 148.246C5.66054 148.286 4.75424 148.128 3.91214 148.299C1.97871 148.693 0.492757 147.908 0.0962524 146.123C3.52319 145.888 3.86494 145.507 3.86494 141.952C3.86494 139.793 3.79508 137.632 3.88948 135.478C3.97822 133.479 3.77997 131.676 1.52178 130.61C3.61948 129.528 3.97822 127.903 3.88382 126.008C3.79508 124.247 3.86305 122.478 3.86116 120.713C3.8555 117.088 3.56661 116.769 0.101917 116.535C0.43989 114.822 1.63318 114.089 3.49864 114.295C4.5541 114.411 5.63221 114.306 6.699 114.334C10.8094 114.447 14.9727 114.212 19.0133 114.809C22.2307 115.284 24.7003 117.387 25.7256 120.767C25.9597 121.538 26.6111 122.185 27.1303 122.983ZM11.0964 131.957C11.0964 135.42 11.0473 138.724 11.1134 142.024C11.1606 144.387 12.5654 145.725 14.7801 145.721C16.9515 145.717 18.7943 144.153 18.8793 142.061C18.9699 139.851 18.9548 137.632 18.8641 135.422C18.7886 133.61 17.8691 132.242 15.981 131.997C14.4554 131.8 12.8826 131.957 11.0964 131.957ZM6.87082 129.184C9.84649 129.184 12.522 129.214 15.1936 129.175C17.095 129.147 18.0862 128.072 18.1618 126.235C18.2411 124.284 18.2543 122.328 18.2184 120.377C18.1806 118.326 16.7759 116.981 14.7537 116.946C12.6862 116.91 11.255 118.178 11.1021 120.223C11.0492 120.936 10.9869 121.673 11.1078 122.369C11.6553 125.524 10.7754 127.789 7.38061 128.599C7.28621 128.622 7.21823 128.779 6.87082 129.184Z" fill="white"/>
<path d="M177.851 124.41C175.797 126.877 176.252 131.319 171.585 132.458C175.855 134.582 176.28 138.064 176.173 141.879C176.088 144.909 177.464 146.136 180.289 145.956C180.347 147.667 179.377 148.503 177.702 148.359C176.05 148.218 174.343 147.974 172.736 148.235C170.769 148.554 169.83 147.665 169.372 146.089C169.013 144.855 168.943 143.528 168.818 142.238C168.724 141.264 168.794 140.275 168.713 139.302C168.346 134.936 166.294 133.359 161.657 134.053C161.657 137.39 161.532 140.774 161.706 144.144C161.802 146.008 163.366 146.235 164.948 145.907C164.816 147.762 163.821 148.456 162.138 148.394C159.434 148.295 156.723 148.379 154.016 148.37C152.452 148.364 151.004 148.141 150.447 146.031C151.076 146.031 151.557 146.076 152.025 146.023C153.445 145.862 154.365 145.145 154.376 143.639C154.401 140.307 154.52 136.964 154.304 133.646C154.235 132.58 153.241 131.575 152.592 130.402C154.227 129.513 154.514 127.755 154.408 125.767C154.31 123.941 154.391 122.108 154.388 120.278C154.38 117.186 153.902 116.694 150.779 116.558C150.885 114.809 152.282 114.151 154.355 114.314C157.008 114.522 159.691 114.319 162.359 114.357C164.899 114.395 167.497 114.207 169.963 114.67C173.416 115.319 175.472 117.732 176.45 121.088C176.767 122.174 177.328 123.187 177.851 124.41ZM157.656 130.381C157.83 130.565 158.001 130.751 158.175 130.935C160.781 130.935 163.384 130.948 165.99 130.931C167.731 130.92 168.79 129.89 168.883 128.307C169.053 125.446 169.094 122.557 168.894 119.7C168.754 117.694 167.27 116.8 165.074 116.914C162.824 117.032 161.789 117.968 161.645 120.129C161.572 121.236 161.615 122.35 161.627 123.459C161.657 126.418 162.442 129.732 157.656 130.381Z" fill="white"/>
<path d="M241.709 130.562C242.11 129.378 242.57 128.123 242.959 126.847C243.473 125.168 243.739 123.386 244.449 121.799C246.892 116.346 251.735 113.485 257.141 114.113C262.932 114.787 266.931 118.542 268.175 124.5C268.481 125.965 268.681 127.459 269.076 128.899C269.238 129.49 269.786 129.974 269.927 130.175C269.404 132.115 268.951 133.826 268.481 135.533C267.945 137.478 267.59 139.504 266.806 141.347C264.865 145.907 261.399 148.426 256.289 148.554C251.227 148.68 247.46 146.49 245.278 142.059C244.145 139.759 243.714 137.118 242.961 134.632C242.553 133.293 242.138 131.959 241.709 130.562ZM258.991 130.59C258.816 130.58 258.64 130.569 258.462 130.56C258.904 129.997 259.605 129.492 259.745 128.864C260.473 125.59 260.738 122.262 259.492 119.066C258.865 117.454 257.358 116.856 255.627 116.89C253.978 116.921 252.719 117.572 251.939 119.062C250.544 121.726 251.186 128.41 252.815 130.391C252.258 131.809 251.48 133.012 251.354 134.278C251.125 136.542 251.206 138.848 251.31 141.129C251.446 144.11 253.127 145.738 255.84 145.718C258.527 145.697 260.086 144.046 260.201 140.977C260.273 139.086 260.379 137.171 260.175 135.3C259.999 133.706 259.403 132.158 258.991 130.59Z" fill="white"/>
<path d="M142.47 114.728C143.119 114.349 143.773 113.651 144.418 113.659C145.757 113.674 146.331 114.706 146.28 115.963C146.178 118.512 146.05 121.062 145.827 123.603C145.774 124.198 145.425 124.902 144.977 125.282C144.617 125.59 143.88 125.607 143.355 125.509C143.148 125.472 143.025 124.787 142.927 124.382C142.549 122.817 142.443 121.133 141.777 119.705C140.742 117.492 138.265 116.636 135.91 117.308C133.635 117.957 132.533 119.332 132.748 122.015C133.007 125.266 132.733 128.02 128.896 129.093C131.203 129.093 133.531 129.282 135.812 129.042C138.269 128.783 137.819 126.789 137.598 125.042C138.979 124.641 140.225 125.119 140.232 126.322C140.244 128.46 141.894 130.556 140.431 132.756C140.196 133.107 140.448 133.762 140.436 134.274C140.398 136.054 139.577 136.788 137.583 136.685C137.649 136.195 137.729 135.717 137.774 135.236C138.019 132.612 136.107 131.109 133.611 132.049C133.207 132.201 132.761 132.876 132.75 133.321C132.674 136.394 132.646 139.47 132.755 142.541C132.78 143.22 133.248 144.063 133.781 144.513C136.126 146.498 141.152 145.669 142.39 142.89C143.297 140.859 143.495 138.517 144.063 136.328C144.203 135.788 144.56 135.302 144.817 134.79C145.385 135.233 146.254 135.566 146.465 136.139C147.118 137.91 147.543 139.765 148 141.603C148.104 142.024 147.998 142.504 147.947 142.952C147.834 143.943 147.857 144.989 147.52 145.903C147.126 146.974 146.565 148.085 145.772 148.876C145.285 149.362 144.331 149.319 144.084 148.079C143.999 147.655 142.898 146.997 142.504 147.134C139.001 148.351 135.574 148.649 131.86 147.822C129.806 147.364 127.469 148.04 125.28 148.346C123.455 148.601 122.001 147.773 121.716 146.091C125.001 145.965 125.42 145.52 125.426 142.134C125.429 139.78 125.362 137.422 125.448 135.071C125.516 133.246 125.218 131.678 123.145 130.687C125.392 129.522 125.511 127.633 125.441 125.631C125.38 123.868 125.429 122.099 125.426 120.334C125.42 117.146 124.99 116.694 121.861 116.569C121.863 114.925 123.219 114.06 125.18 114.301C126.234 114.43 127.316 114.323 128.384 114.319C128.779 114.317 129.196 114.211 129.563 114.308C133.879 115.441 138.41 112.978 142.63 115.578C142.579 115.295 142.525 115.012 142.47 114.728Z" fill="white"/>
<path d="M300.394 125.027C299.875 126.02 299.212 127.001 298.819 128.079C296.691 133.904 291.488 137.015 285.325 136.075C285.072 136.035 284.815 136.022 284.347 135.975C284.347 138.705 284.086 141.403 284.428 144.023C284.711 146.214 286.864 145.948 288.538 146.04C288.251 147.715 286.524 148.644 284.588 148.349C283.552 148.192 282.476 148.293 281.416 148.293C279.375 148.291 277.319 148.436 275.297 148.242C274.266 148.145 273.056 147.651 273.318 146.1C276.426 145.984 276.94 145.46 276.942 142.44C276.942 140.022 276.86 137.598 276.96 135.184C277.038 133.304 276.802 131.661 274.704 130.64C276.849 129.558 277.045 127.822 276.959 125.911C276.877 124.149 276.942 122.382 276.942 120.617C276.942 117.026 276.845 116.916 273.347 116.471C273.651 114.738 274.965 114.158 276.943 114.306C279.532 114.499 282.217 114.713 284.736 114.252C291.229 113.062 296.816 116.06 298.953 122.215C299.306 123.234 299.941 124.157 300.394 125.027ZM284.335 125.189C284.332 125.189 284.33 125.189 284.326 125.189C284.326 126.823 284.296 128.457 284.333 130.089C284.383 132.175 285.612 133.42 287.606 133.479C289.562 133.535 291.134 132.297 291.193 130.355C291.297 126.896 291.291 123.431 291.191 119.972C291.134 118.019 289.756 116.901 287.811 116.921C285.685 116.944 284.426 118.052 284.349 120.094C284.284 121.789 284.335 123.491 284.335 125.189Z" fill="white"/>
<path d="M45.5149 145.901C46.4873 145.839 47.3087 145.785 48.5019 145.708C47.9808 143.774 47.556 142.033 47.0103 140.33C46.9235 140.058 46.3023 139.804 45.9247 139.801C42.7054 139.759 39.4862 139.776 36.0838 139.776C35.6533 141.224 35.0095 142.624 34.9169 144.059C34.8773 144.678 35.8931 145.502 36.603 145.976C36.992 146.235 37.7435 145.959 38.3307 145.926C38.697 147.533 37.8832 148.443 36.2518 148.394C34.1655 148.334 32.0753 148.374 29.9852 148.366C28.5124 148.361 27.6043 147.781 27.6552 146.824C29.2167 145.871 31.1558 145.363 31.4447 144.378C32.0999 142.14 34.8433 139.59 30.7612 137.028C36.1876 137.028 40.9854 137.028 46.1588 137.028C44.5973 131.385 43.134 126.1 41.6707 120.814C41.5178 120.806 41.363 120.797 41.21 120.79C40.1697 124.577 39.0368 128.344 38.1324 132.164C37.7 133.994 36.9542 134.822 35.102 134.178C34.7357 132.981 34.3694 131.783 33.9389 130.381C36.1008 129.265 36.7295 126.851 37.3828 124.448C37.7944 122.936 38.2023 121.424 38.629 119.917C39.3691 117.304 38.8914 116.792 36.1027 117.233C35.7175 115.16 36.9523 113.854 39.1123 114.359C40.4038 114.661 41.5556 114.492 42.8055 114.454C44.9447 114.393 47.101 114.528 49.2685 114.408C49.9879 114.368 50.7677 115.394 51.91 116.212C48.045 117.116 47.8619 117.433 48.7568 120.576C49.2761 122.397 49.8463 124.206 50.29 126.046C50.7752 128.057 51.6513 129.717 53.9454 130.535C52.1347 131.616 52.0592 132.959 52.6992 134.638C53.8151 137.566 54.7969 140.545 55.7561 143.53C56.3263 145.308 57.3648 146.314 59.3303 146.113C59.1056 147.773 57.8519 148.541 56.2017 148.229C55.4313 148.085 54.6119 148.186 53.8151 148.212C53.2317 148.231 52.6501 148.342 52.0667 148.351C51.0113 148.37 49.9407 148.229 48.9022 148.361C47.1482 148.584 45.953 147.824 45.5149 145.901Z" fill="white"/>
<path d="M183.763 148.895C183.278 147.006 182.919 145.612 182.56 144.22C182.543 144.157 182.504 144.089 182.515 144.031C183.03 141.482 183.425 138.898 184.135 136.405C184.392 135.503 185.338 134.615 186.714 135.57C185.562 138.57 186.104 141.328 187.996 143.86C189.527 145.909 193.661 146.522 195.683 144.999C197.852 143.363 198.152 139.857 196.128 137.67C194.984 136.433 193.651 135.272 192.186 134.465C191.225 133.936 189.877 134.101 189.014 133.993C188.41 133.032 187.928 131.974 187.186 131.143C185.375 129.117 183.591 127.083 183.27 124.27C182.451 117.073 188.417 112.391 195.664 114.498C196.419 114.717 197.161 115.021 197.933 115.149C199.672 115.434 200.022 115.211 200.935 113.306C201.411 113.824 202.123 114.237 202.151 114.691C202.282 116.713 202.244 118.749 202.206 120.778C202.193 121.476 202.036 122.18 201.872 122.863C201.54 124.258 200.841 125.091 199.253 124.427C199.482 120.302 198.224 118.071 195.256 117.25C193.154 116.668 191.285 117.291 190.428 118.859C189.56 120.45 189.873 122.133 191.553 123.577C193.179 124.975 194.625 127.057 196.797 125.939C197.694 127.258 198.328 128.558 199.293 129.541C202.197 132.501 204.406 135.638 203.86 140.099C203.286 144.783 198.955 148.554 194.187 148.359C192.04 148.271 189.854 148.62 187.868 147.359C187.594 147.184 186.882 147.685 186.376 147.88C185.43 148.246 184.488 148.614 183.763 148.895Z" fill="white"/>
<path d="M300.845 103.405C300.845 104.184 300.845 104.743 300.845 105.44C300.137 105.474 299.489 105.532 298.844 105.532C270.609 105.536 242.374 105.536 214.139 105.529C209.604 105.527 206.798 103.495 205.973 99.6738C205.404 97.0418 206.683 94.0027 208.992 92.4963C211.516 90.8474 214.756 90.7517 217.003 92.26C219.322 93.8151 220.132 96.8298 218.861 99.1673C217.683 101.334 214.902 102.287 212.557 101.325C210.389 100.437 209.394 97.7734 210.901 96.2239C211.616 95.4885 213.055 95.269 214.184 95.2165C214.551 95.1996 215.468 96.7098 215.274 97.0868C214.856 97.8954 213.884 98.4225 212.891 99.2761C213.733 99.2986 214.864 99.6456 215.61 99.2592C216.384 98.8559 217.111 97.8034 217.277 96.9274C217.555 95.4454 216.66 94.2954 215.285 93.6519C212.61 92.3988 208.898 94.1528 208.137 96.9968C207.298 100.13 209.269 102.998 212.532 103.339C213.38 103.428 214.241 103.401 215.096 103.403C242.87 103.407 270.645 103.407 298.419 103.407C299.195 103.405 299.971 103.405 300.845 103.405Z" fill="#E4BC7D"/>
<path d="M87.8012 99.0772C87.0365 98.4075 86.1 97.871 85.6525 97.0662C85.4562 96.7135 86.2624 95.2559 86.5947 95.2634C87.737 95.2859 89.1833 95.3966 89.9404 96.0888C91.5246 97.539 90.6466 100.31 88.5432 101.265C86.1906 102.332 83.264 101.373 82.067 99.141C80.7887 96.7567 81.6856 93.56 84.125 92.1305C86.8005 90.5622 89.4608 91.0125 91.9664 92.532C94.251 93.9165 95.5198 96.9612 95.0062 99.5125C94.4096 102.471 92.6839 104.465 89.7082 105.206C88.6395 105.472 87.4934 105.519 86.3813 105.519C58.3428 105.536 30.3061 105.532 2.26756 105.534C1.55952 105.534 0.851474 105.534 0.11322 105.534C0.11322 104.724 0.11322 104.167 0.11322 103.407C1.00252 103.407 1.77854 103.407 2.55644 103.407C30.3307 103.407 58.1049 103.407 85.8791 103.401C86.7986 103.401 87.7313 103.429 88.6376 103.308C90.7183 103.028 92.1306 101.865 92.7726 99.8689C93.3976 97.9235 92.7802 95.7812 91.2017 94.5524C89.5307 93.2524 87.6199 92.8791 85.6355 93.6782C83.8135 94.4117 83.0318 96.7342 83.957 98.2781C84.7783 99.6532 86.5739 99.897 87.8012 99.0772Z" fill="#E4BC7D"/>
<path d="M262.735 98.9589C262.044 98.9589 261.4 98.9589 260.757 98.9589C248.799 98.9589 236.842 98.9589 224.882 98.9589C224.488 98.9589 224.019 99.0808 223.719 98.912C223.355 98.7057 222.902 98.2442 222.911 97.9046C222.921 97.5707 223.434 97.0173 223.778 96.9741C224.812 96.8466 225.874 96.9141 226.925 96.9141C238.292 96.9122 249.658 96.916 261.025 96.9066C262.235 96.9066 263.413 96.856 262.735 98.9589Z" fill="#E4BC7D"/>
<path d="M57.9482 98.959C51.9043 98.959 45.8585 98.9722 39.8147 98.9421C39.0745 98.9384 37.8246 99.3492 38.0587 97.9216C38.1267 97.5089 39.1236 96.9611 39.6976 96.9592C51.9175 96.903 64.1393 96.9124 76.3592 96.9349C76.9087 96.9367 77.8074 97.0268 77.9415 97.3363C78.4116 98.4131 77.9811 98.9928 76.6726 98.9815C71.6144 98.9365 66.5542 98.9647 61.4959 98.9647C60.3121 98.959 59.1301 98.959 57.9482 98.959Z" fill="#E4BC7D"/>
<path d="M161.038 163.01C161.829 163.721 162.748 164.31 163.264 165.143C163.437 165.422 162.729 166.574 162.172 166.899C160.919 167.628 159.731 167.124 158.861 166.06C157.218 164.055 158.572 161.081 161.326 160.573C164.285 160.027 166.849 161.721 167.353 164.554C167.837 167.27 165.679 170.242 162.839 170.771C158.338 171.609 154.35 168.812 153.823 164.447C153.315 160.23 156.599 156.678 161.228 156.667C170.11 156.647 178.992 156.774 187.873 156.778C194.893 156.78 201.912 156.656 208.932 156.65C214.839 156.647 220.745 156.763 226.653 156.77C231.442 156.776 236.232 156.692 241.02 156.66C243.909 156.641 246.796 156.641 249.685 156.639C265.877 156.637 282.07 156.639 298.26 156.639C299.046 156.639 299.829 156.639 300.77 156.639C300.841 157.275 300.904 157.819 300.998 158.659C300.205 158.659 299.573 158.659 298.94 158.659C283.076 158.659 267.214 158.676 251.352 158.654C239.985 158.637 228.619 158.532 217.251 158.526C208.444 158.522 199.638 158.629 190.832 158.65C181.229 158.673 171.626 158.629 162.025 158.689C160.815 158.697 159.501 158.939 158.422 159.459C155.951 160.648 155.148 163.8 156.504 166.225C157.765 168.48 161.19 169.551 163.39 168.377C165.101 167.463 165.799 165.392 164.91 163.871C164.07 162.434 162.372 162.171 161.038 163.01Z" fill="#E4BC7D"/>
<path d="M0.154773 158.569C-0.266278 157.078 0.164213 156.618 1.53876 156.62C18.1259 156.656 34.713 156.641 51.2982 156.639C59.0376 156.639 66.777 156.618 74.5164 156.645C80.8171 156.667 87.1196 156.795 93.4203 156.787C108.47 156.767 123.521 156.686 138.573 156.658C139.745 156.656 140.963 156.71 142.081 157.02C144.964 157.815 146.624 159.813 147.054 162.734C147.46 165.488 146.522 167.809 144.25 169.428C141.896 171.105 139.258 171.455 136.598 170.206C134.145 169.054 132.986 166.175 133.824 163.764C134.67 161.337 136.996 160.065 139.653 160.579C141.894 161.012 143.242 163.057 142.596 165.062C142.498 165.368 142.39 165.826 142.17 165.912C141.095 166.336 139.989 166.859 138.875 166.906C138.476 166.923 137.515 165.409 137.695 165.103C138.188 164.265 139.145 163.697 139.883 163.053C138.926 162.23 137.219 162.32 136.214 163.576C135.233 164.803 135.565 166.865 136.924 167.968C139.254 169.859 143.525 168.589 144.696 165.655C145.802 162.882 144.454 159.909 141.586 159.042C140.602 158.744 139.515 158.68 138.476 158.678C128.148 158.654 117.82 158.682 107.492 158.658C99.213 158.639 90.9336 158.528 82.6561 158.528C73.916 158.528 65.1759 158.641 56.4358 158.652C38.0134 158.675 19.5892 158.663 1.1668 158.661C0.8496 158.661 0.532396 158.605 0.154773 158.569Z" fill="#E4BC7D"/>
<path d="M172.704 164.777C172.704 164.064 172.704 163.559 172.704 162.886C202.935 162.886 233.086 162.886 263.4 162.886C263.4 163.498 263.4 164.09 263.4 164.777C233.149 164.777 203.012 164.777 172.704 164.777Z" fill="#E4BC7D"/>
<path d="M37.4961 164.745C37.4961 164.077 37.4961 163.524 37.4961 162.85C67.7664 162.85 97.9196 162.85 128.211 162.85C128.241 163.514 128.267 164.062 128.298 164.745C98.0273 164.745 67.8891 164.745 37.4961 164.745Z" fill="#E4BC7D"/>
<path d="M150.46 182.604C148.716 180.025 147.207 178.128 146.072 176.031C144.858 173.787 145.476 171.707 147.36 170.292C149.152 168.947 151.833 168.96 153.615 170.322C155.485 171.75 156.079 173.815 154.852 176.072C153.715 178.162 152.201 180.049 150.46 182.604ZM150.47 179.224C151.54 177.494 152.42 176.299 153.051 174.984C153.61 173.821 153.394 172.439 152.148 171.979C151.125 171.602 149.699 171.619 148.701 172.041C147.496 172.549 147.341 173.926 147.93 175.089C148.57 176.346 149.401 177.505 150.47 179.224Z" fill="#E4BC7D"/>
<path d="M205.875 77.9238C205.805 79.0588 205.756 79.8842 205.709 80.6421C203.949 81.2499 202.212 81.6532 200.675 82.4393C199.223 83.1822 197.979 84.3265 196.642 85.2945C196.445 85.15 196.247 85.0056 196.051 84.8611C196.364 84.1858 196.528 83.3735 197.014 82.8595C199.357 80.3776 202.295 78.8899 205.875 77.9238Z" fill="#E4BC7D"/>
</svg>
