<svg width="23" height="24" viewBox="0 0 23 24" fill="none" xmlns="http://www.w3.org/2000/svg">
<path d="M19.6482 3.49206C18.5886 2.38078 17.3265 1.49967 15.9355 0.90013C14.5444 0.300592 13.0523 -0.00537612 11.5462 7.14833e-05C5.23568 7.14833e-05 0.0924625 5.34006 0.0924625 11.892C0.0924625 13.992 0.624121 16.032 1.61809 17.832L0 24L6.06784 22.344C7.74372 23.292 9.62764 23.796 11.5462 23.796C17.8568 23.796 23 18.456 23 11.904C23 8.72405 21.8095 5.73605 19.6482 3.49206ZM11.5462 21.78C9.83568 21.78 8.1598 21.3 6.69196 20.4L6.34523 20.184L2.7392 21.168L3.69849 17.52L3.46734 17.148C2.51699 15.5724 2.01237 13.7511 2.01106 11.892C2.01106 6.44405 6.28744 2.00407 11.5347 2.00407C14.0774 2.00407 16.4698 3.03606 18.2613 4.90806C19.1483 5.82481 19.8513 6.91525 20.3294 8.11616C20.8076 9.31707 21.0514 10.6046 21.0467 11.904C21.0698 17.352 16.7935 21.78 11.5462 21.78ZM16.7703 14.388C16.4814 14.244 15.0714 13.524 14.8171 13.416C14.5513 13.32 14.3663 13.272 14.1698 13.56C13.9734 13.86 13.4301 14.532 13.2683 14.724C13.1065 14.928 12.9332 14.952 12.6442 14.796C12.3553 14.652 11.4307 14.328 10.3442 13.32C9.48894 12.528 8.92261 11.556 8.74924 11.256C8.58744 10.956 8.72613 10.8 8.87638 10.644C9.00352 10.512 9.16533 10.296 9.30402 10.128C9.44271 9.96004 9.5005 9.82804 9.59296 9.63604C9.68543 9.43204 9.63919 9.26404 9.56985 9.12005C9.5005 8.97605 8.92261 7.51205 8.69146 6.91205C8.4603 6.33605 8.21759 6.40805 8.04422 6.39605H7.48945C7.29296 6.39605 6.99246 6.46805 6.72663 6.76805C6.47236 7.06805 5.73266 7.78805 5.73266 9.25204C5.73266 10.716 6.76131 12.132 6.9 12.324C7.03869 12.528 8.92261 15.528 11.7889 16.812C12.4709 17.124 13.0025 17.304 13.4186 17.436C14.1005 17.664 14.7246 17.628 15.2216 17.556C15.7764 17.472 16.9206 16.836 17.1518 16.14C17.3945 15.444 17.3945 14.856 17.3136 14.724C17.2327 14.592 17.0593 14.532 16.7703 14.388Z" fill="#E4BC7D"/>
</svg>
