<svg width="165" height="100" fill="none" xmlns="http://www.w3.org/2000/svg"><path d="M93.467 7.64C89.023 2.547 83.168 0 75.903 0c-4.817 0-9.075 1.324-12.771 3.974-3.698 2.65-6.5 6.15-8.406 10.501-1.906 4.352-2.86 9.164-2.86 14.436 0 8.601 2.157 15.512 6.473 20.734 4.316 5.221 10.247 7.831 17.795 7.831 1.705 0 3.339-.163 4.901-.489l-1.168-2.021.302-.548c-1.304.632-2.725.948-4.266.948-2.912 0-5.417-1.26-7.516-3.781-2.1-2.521-3.652-5.811-4.657-9.868-1.004-4.057-1.506-8.606-1.506-13.65 0-3.557.251-6.796.754-9.714.502-2.917 1.178-5.369 2.028-7.352.851-1.984 1.869-3.653 3.054-5.01 1.184-1.357 2.453-2.343 3.807-2.956a10.209 10.209 0 0 1 4.27-.922c4.276 0 7.619 2.164 10.027 6.489 1.264 2.27 2.197 5.13 2.798 8.578h9.73c-1.106-3.636-2.847-6.815-5.225-9.54z" fill="#E4BC7D"/><path d="m82.316 54.878 16.2-33.628-7.263-.328h-.299c-.857 0-1.634.195-2.331.582a5.492 5.492 0 0 0-1.809 1.749c-.449.704-.813 1.554-1.09 2.55-.28.997-.47 1.95-.569 2.86-.1.912-.15 1.865-.15 2.86H83.78V19.356h22.927l.568 1.056-16.829 33.63 8.52.328h.298c.916-.024 1.734-.23 2.451-.62.797-.437 1.409-1.008 1.838-1.712.428-.704.782-1.56 1.061-2.569.279-1.008.458-1.955.538-2.841.08-.887.12-1.84.12-2.86h1.225v12.168H82.854l-.538-1.057zM48.5 41.844c-.519-1.416-.919-2.583-1.37-3.732-2.55-6.475-5.695-12.595-10.518-17.751-.58-.62-1-1.515-1.183-2.349-.361-1.649 1.132-3.085 2.733-2.542 1.06.36 2.218 1.046 2.857 1.926 5.27 7.252 8.695 15.293 10.027 24.171.191 1.272.349 2.557.38 3.84.01.427-.424.864-.656 1.298-.337-.326-.915-.617-.968-.983-.244-1.68-1.364-2.133-2.825-2.503-7.635-1.936-15.247-3.96-22.867-5.951-1.838-.481-1.942-.664-1.258-2.433 1.353-3.497.863-3.034 4.221-2.139 4.171 1.112 8.326 2.283 12.501 3.379 1.2.315 1.981.873 2.182 2.173.197 1.274.974 2.148 2.247 2.489 1.408.378 2.832.7 4.498 1.107zM24.077 33.88c-.052.044-.125.078-.152.134-.08.158-.145.325-.21.49-.649 1.651-.6 1.753 1.09 2.198 3.853 1.015 7.707 2.032 11.563 3.04 1.445.377 2.896.733 4.495 1.137l-.072-1.458c-.288.934-.902.622-1.443.482-4.48-1.171-8.959-2.343-13.437-3.52-2.071-.545-2.07-.552-1.834-2.503zm25.072 2.04c-1.52-5.416-3.474-10.568-6.634-14.944l6.634 14.945zM39.18 17.799c-.542-.355-.91-.777-1.168-.718-.332.075-.575.535-.856.829.31.27.6.71.94.754.259.034.582-.441 1.084-.865zM116.29 41.846c1.664-.401 3.057-.71 4.435-1.075 1.307-.347 2.127-1.218 2.333-2.544.194-1.246.926-1.817 2.096-2.127 4.799-1.271 9.59-2.576 14.373-3.908.927-.258 1.437-.01 1.739.869.256.743.581 1.464.851 2.203.386 1.06.108 1.61-1.009 1.904-5.009 1.32-10.021 2.623-15.032 3.934-3.167.828-6.328 1.684-9.506 2.47-.686.171-1.075.463-1.21 1.146-.077.383-.159.802-.374 1.112-.24.347-.633.588-.96.875-.228-.4-.638-.796-.646-1.2-.019-1.032.096-2.073.237-3.1 1.212-8.776 4.47-16.766 9.448-24.085.857-1.26 1.762-2.461 3.367-2.852 1.89-.46 3.424.922 2.897 2.77-.263.918-.848 1.823-1.504 2.54-5.497 6.013-8.722 13.238-11.535 21.068zm24.371-8.165c.31 1.876.283 2.035-.986 2.385-4.815 1.326-9.64 2.62-14.474 3.879-.316.082-.737-.23-1.191-.387l-.059 1.31c.568-.135.98-.224 1.389-.331 4.696-1.233 9.372-2.547 14.096-3.666 2.027-.48 2.615-.553 1.225-3.19zm-24.999 2.23 6.631-14.943c-3.157 4.38-5.116 9.529-6.631 14.943zm12.392-18.047c-.582-.408-.94-.841-1.188-.787-.344.076-.764.482-.845.82-.048.204.474.756.755.769.327.014.671-.395 1.278-.802z" fill="#E4BC7D"/><path d="M121.119 63.855c-1.541.02-1.763.236-1.777 1.679-.006.644-.022 1.29.008 1.933.067 1.454.253 2.953-1.944 3.285l.239.235h6.896c0-2.071.082-4.169-.069-6.25-.03-.412-.958-.76-1.611-1.238.077-.66.689-.981 1.732-.9 1.273.102 2.567.103 3.839-.008 1.084-.094 1.807.226 2.001 1.164-1.981.344-1.98.344-1.977 2.38.002.968.041 1.936-.009 2.901-.054 1.023.097 1.92 1.194 2.493-1.099.583-1.242 1.48-1.197 2.512.057 1.322.012 2.65.014 3.974.003 1.602.184 1.807 1.79 2.04-.003.897-.706 1.274-1.721 1.193a26.904 26.904 0 0 0-4.018-.001c-.927.066-1.538-.26-1.734-1.214 1.677-.169 1.807-.319 1.805-2.058-.002-1.68 0-3.361 0-5.147h-5.205c0 2.083-.078 4.182.068 6.265.028.398.937.736 1.61 1.227-.033.58-.665.999-1.598.946a35.109 35.109 0 0 0-4.12 0c-.883.053-1.509-.264-1.681-1.118 1.822-.554 1.822-.554 1.821-2.539-.001-1.253-.023-2.506.006-3.759.021-.957-.129-1.8-1.328-2.263 1.319-.7 1.385-1.767 1.331-2.9-.04-.822-.008-1.647-.009-2.47-.002-2.106-.064-2.179-2.052-2.432.229-.932.88-1.26 1.897-1.197 1.348.08 2.709.088 4.056-.002 1.014-.068 1.561.217 1.743 1.27zM64.66 67.405c-.727 1.307-1.46 2.622-2.239 4.025 1.85.548 1.946 2.716 3.006 4.135-.28.512-.646 1.04-.872 1.623-.961 2.475-3.568 4.243-6.24 4.12-.924-.044-1.841-.236-2.765-.342-.2-.022-.412.012-.61.056-.246.055-.48.21-.72.216-1.01.023-2.026.079-3.027-.018-.658-.063-1.334-.329-1.272-1.251 1.648.04 2.002-.31 2.003-1.91.001-1.396-.032-2.793.014-4.188.031-.96-.095-1.798-1.316-2.336 1.421-.616 1.333-1.703 1.308-2.778-.02-.895-.005-1.79-.004-2.686.002-1.967-.086-2.07-1.951-2.276.133-.915.81-1.326 1.836-1.206.577.068 1.212-.128 1.745.038 1.655.518 3.23-.325 4.853-.162 1.887.19 3.644.715 4.827 2.283.59.78.94 1.735 1.424 2.657zm-8.56 4.849c-.06.184-.117.282-.119.38-.008 1.751-.033 3.503-.005 5.254.019 1.184.706 1.947 1.688 1.985 1.234.049 2.425-.81 2.477-1.91a43.807 43.807 0 0 0-.016-4.072c-.044-.948-.668-1.515-1.584-1.618-.807-.091-1.632-.02-2.44-.02zm-2.358-1.503c1.399 0 2.798.015 4.197-.004 1.267-.018 1.782-.454 1.887-1.718.086-1.033.068-2.076.042-3.114-.027-1.097-.848-1.854-1.949-1.87-1.261-.02-2.038.736-1.932 2.144.146 1.964.15 3.766-2.245 4.562zM32.937 80.216c1.9-.395 1.9-.395 1.9-2.339 0-1.216-.025-2.433.007-3.65.028-1.064.074-2.11-1.254-2.672 1.128-.578 1.311-1.425 1.259-2.426-.056-1.07-.017-2.146-.014-3.22.005-1.76-.203-1.99-1.904-2.083.037-.944.84-1.328 1.953-1.23 1.41.126 2.837.014 4.257.05 1.53.038 3.1-.068 4.577.245 1.689.36 2.719 1.635 3.21 3.312.185.63.496 1.221.787 1.919-1.088 1.34-.852 3.798-3.389 4.447 2.025.999 2.546 2.575 2.453 4.468-.02.424.012.86.09 1.279.231 1.253.8 1.667 2.189 1.647.002.903-.477 1.346-1.338 1.291-.906-.056-1.838-.21-2.717-.068-1.174.19-1.7-.361-1.972-1.315-.155-.541-.18-1.125-.22-1.693-.046-.64.01-1.293-.07-1.928-.307-2.407-1.238-3.121-3.833-2.878 0 1.899-.078 3.82.035 5.729.052.862.793 1.104 1.62.785.1.986-.286 1.315-1.279 1.306-1.557-.014-3.115.065-4.672.05-.718-.003-1.526 0-1.675-1.026zm3.918-8.585c1.656 0 3.258.096 4.832-.064.42-.042 1.037-.844 1.082-1.34.143-1.557.12-3.138.038-4.703-.053-1.045-.9-1.575-2.096-1.508-1.201.07-1.763.568-1.812 1.675-.035.784-.091 1.58.003 2.354.19 1.56-.07 2.811-1.808 3.309-.078.022-.129.145-.24.277zM14.857 67.35l-2.332 4.1c1.979.495 1.927 2.807 3.1 4.1-.3.495-.7.946-.869 1.47-.862 2.663-2.902 3.85-5.476 4.21-1.105.156-2.273-.128-3.412-.196-.306-.018-.615.017-.922.04-.456.032-.91.09-1.367.11-.48.022-.975-.064-1.437.03-1.058.215-1.872-.215-2.09-1.193 1.877-.128 2.065-.337 2.065-2.283 0-1.183-.039-2.366.013-3.546.049-1.095-.06-2.082-1.297-2.666 1.15-.593 1.346-1.482 1.294-2.52-.049-.964-.011-1.933-.012-2.9-.004-1.985-.162-2.16-2.06-2.288.186-.938.84-1.34 1.861-1.226.578.063 1.168.006 1.753.021 2.25.062 4.53-.067 6.743.26 1.762.26 3.115 1.412 3.676 3.263.128.422.485.776.77 1.213zm-8.78 4.914c0 1.896-.027 3.706.01 5.513.025 1.294.794 2.027 2.007 2.025 1.19-.003 2.198-.86 2.245-2.005.05-1.21.041-2.425-.008-3.636-.042-.992-.545-1.74-1.58-1.876-.835-.107-1.696-.021-2.674-.021zm-2.314-1.518c1.63 0 3.094.016 4.558-.006 1.04-.015 1.584-.604 1.625-1.61.043-1.068.05-2.14.031-3.208-.02-1.123-.79-1.86-1.897-1.879-1.133-.02-1.916.675-2 1.795-.03.39-.063.794.003 1.175.3 1.728-.182 2.968-2.041 3.412-.052.012-.089.099-.28.32zM97.397 68.13c-1.125 1.352-.876 3.785-3.432 4.408 2.339 1.163 2.572 3.07 2.513 5.16-.047 1.659.707 2.33 2.254 2.232.032.937-.5 1.395-1.417 1.316-.904-.077-1.84-.21-2.72-.068-1.077.175-1.59-.312-1.842-1.175-.196-.676-.234-1.403-.303-2.11-.051-.532-.013-1.074-.058-1.607-.2-2.39-1.324-3.255-3.864-2.875 0 1.828-.068 3.681.027 5.526.053 1.022.91 1.146 1.776.966-.073 1.016-.618 1.396-1.539 1.362-1.48-.054-2.966-.008-4.448-.013-.856-.003-1.65-.125-1.954-1.281.344 0 .608.025.864-.004.777-.088 1.281-.48 1.287-1.306.014-1.824.079-3.655-.039-5.472-.038-.584-.582-1.135-.938-1.777.896-.487 1.053-1.45.995-2.538-.054-1-.01-2.004-.011-3.006-.005-1.693-.266-1.962-1.977-2.037.058-.958.824-1.319 1.959-1.23 1.453.115 2.922.004 4.383.024 1.39.021 2.814-.082 4.164.172 1.891.356 3.017 1.677 3.553 3.514.173.595.48 1.15.767 1.82zm-11.06 3.27.285.304c1.427 0 2.853.007 4.28-.002.953-.006 1.533-.57 1.583-1.437.094-1.567.116-3.15.007-4.714-.077-1.098-.89-1.588-2.092-1.525-1.233.064-1.8.577-1.878 1.76-.04.607-.016 1.217-.01 1.824.016 1.62.447 3.436-2.175 3.79zM132.368 71.5c.219-.649.471-1.336.684-2.035.281-.919.427-1.895.816-2.764 1.338-2.987 3.99-4.553 6.951-4.21 3.171.37 5.361 2.426 6.042 5.69.168.802.277 1.62.493 2.408.089.324.389.589.467.699-.287 1.062-.535 2-.792 2.934-.294 1.065-.488 2.175-.917 3.184-1.063 2.497-2.962 3.877-5.76 3.947-2.772.069-4.835-1.13-6.03-3.557-.62-1.26-.856-2.706-1.269-4.067-.223-.734-.451-1.464-.685-2.23zm9.464.015-.29-.016c.242-.309.626-.585.702-.93.4-1.792.544-3.614-.138-5.365-.343-.882-1.169-1.21-2.117-1.192-.902.018-1.592.374-2.019 1.19-.764 1.459-.413 5.12.48 6.204-.305.777-.731 1.435-.801 2.129-.125 1.24-.08 2.502-.023 3.752.074 1.632.994 2.524 2.48 2.512 1.471-.01 2.326-.915 2.389-2.596.039-1.035.097-2.084-.015-3.108-.096-.874-.423-1.721-.648-2.58zM78.02 62.829c.357-.208.714-.59 1.068-.586.733.008 1.047.573 1.02 1.262a88.312 88.312 0 0 1-.249 4.184c-.029.326-.22.711-.465.92-.197.168-.6.177-.888.124-.114-.02-.181-.395-.235-.617-.207-.857-.264-1.78-.63-2.562-.566-1.212-1.923-1.68-3.212-1.313-1.246.356-1.85 1.109-1.732 2.578.142 1.78-.008 3.289-2.11 3.876 1.264 0 2.539.104 3.788-.027 1.345-.142 1.1-1.234.978-2.19.756-.22 1.439.041 1.443.7.006 1.171.91 2.319.108 3.524-.128.192.01.55.003.83-.02.976-.47 1.377-1.562 1.32.036-.267.08-.53.104-.792.135-1.438-.913-2.26-2.28-1.746-.22.084-.465.453-.471.697a83.999 83.999 0 0 0 .003 5.05c.014.371.27.832.562 1.079 1.284 1.087 4.036.633 4.715-.889.496-1.112.604-2.395.916-3.593.076-.296.272-.562.412-.843.311.243.787.425.903.739.358.97.59 1.986.84 2.992.057.23 0 .494-.029.74-.061.542-.05 1.115-.233 1.615-.216.587-.523 1.195-.958 1.629-.266.266-.789.242-.924-.437-.046-.232-.65-.593-.865-.518-1.919.667-3.795.83-5.83.377-1.124-.25-2.404.12-3.602.287-1 .14-1.797-.314-1.953-1.235 1.8-.069 2.029-.312 2.032-2.167.002-1.29-.035-2.58.013-3.868.037-1-.127-1.858-1.262-2.4 1.23-.639 1.296-1.673 1.257-2.77-.033-.965-.006-1.934-.008-2.9-.003-1.746-.239-1.993-1.952-2.062 0-.9.743-1.374 1.818-1.242.577.07 1.17.012 1.754.01.216-.001.445-.06.645-.006 2.364.62 4.846-.729 7.157.695-.028-.155-.058-.31-.088-.465zM164.505 68.469c-.284.543-.647 1.08-.862 1.671-1.165 3.19-4.015 4.894-7.39 4.379-.139-.022-.279-.029-.536-.055 0 1.495-.142 2.973.045 4.408.155 1.2 1.334 1.054 2.251 1.104-.157.918-1.103 1.426-2.163 1.265-.568-.087-1.157-.031-1.737-.031-1.118-.001-2.244.078-3.352-.028-.564-.053-1.227-.323-1.083-1.173 1.702-.064 1.983-.35 1.984-2.004 0-1.325-.044-2.652.01-3.974.043-1.03-.086-1.93-1.235-2.488 1.174-.593 1.282-1.543 1.234-2.59-.044-.965-.009-1.933-.009-2.9 0-1.966-.053-2.026-1.969-2.27.167-.949.887-1.266 1.97-1.185 1.418.105 2.888.223 4.267-.03 3.556-.651 6.616.99 7.786 4.361.194.558.541 1.063.789 1.54zm-8.794.088h-.005c0 .895-.016 1.79.004 2.684.027 1.142.7 1.824 1.792 1.856 1.071.03 1.933-.647 1.965-1.71a97.12 97.12 0 0 0-.001-5.687c-.031-1.07-.786-1.681-1.851-1.67-1.164.012-1.854.62-1.897 1.737-.035.929-.007 1.86-.007 2.79zM24.925 79.9l1.636-.106c-.285-1.059-.518-2.012-.817-2.945-.047-.149-.387-.288-.594-.29-1.763-.022-3.526-.013-5.39-.013-.235.793-.588 1.56-.638 2.345-.022.34.534.79.923 1.05.213.142.624-.009.946-.028.2.88-.245 1.38-1.138 1.353-1.143-.033-2.288-.012-3.432-.016-.807-.003-1.304-.32-1.276-.844.855-.522 1.917-.8 2.075-1.34.359-1.226 1.861-2.622-.374-4.025h8.432l-2.458-8.88-.252-.013c-.57 2.074-1.19 4.137-1.686 6.229-.236 1.003-.645 1.456-1.659 1.103l-.637-2.079c1.184-.611 1.528-1.933 1.886-3.25.226-.828.449-1.656.682-2.48.406-1.432.144-1.712-1.383-1.47-.21-1.136.465-1.85 1.648-1.574.707.165 1.338.072 2.023.052 1.171-.034 2.352.04 3.539-.026.394-.021.821.54 1.447.989-2.117.495-2.217.668-1.727 2.39.284.997.596 1.987.84 2.995.265 1.101.745 2.01 2.001 2.458-.991.592-1.033 1.328-.682 2.247.61 1.604 1.149 3.235 1.674 4.87.312.974.88 1.524 1.957 1.414-.123.91-.81 1.33-1.713 1.16-.422-.08-.87-.025-1.307-.01-.32.01-.638.07-.958.076-.578.01-1.164-.067-1.733.005-.96.122-1.615-.294-1.855-1.347zM100.635 81.54l-.66-2.56c-.008-.035-.03-.072-.024-.104.282-1.396.498-2.81.887-4.176.141-.494.659-.98 1.413-.457-.631 1.642-.334 3.153.702 4.54.838 1.121 3.102 1.457 4.209.623 1.188-.896 1.353-2.816.244-4.014-.626-.677-1.356-1.313-2.159-1.754-.526-.29-1.264-.2-1.737-.26-.331-.525-.594-1.105-1.001-1.56-.991-1.11-1.969-2.223-2.144-3.764-.45-3.941 2.818-6.505 6.787-5.352.413.12.82.287 1.243.357.952.156 1.143.034 1.644-1.009.26.284.65.51.666.758.071 1.108.05 2.222.03 3.334-.008.382-.093.767-.183 1.141-.182.765-.565 1.22-1.435.857.126-2.259-.563-3.48-2.189-3.93-1.15-.319-2.174.022-2.643.881-.476.871-.304 1.793.616 2.584.89.765 1.682 1.906 2.871 1.293.491.722.839 1.434 1.367 1.973 1.59 1.62 2.8 3.339 2.501 5.782-.314 2.565-2.686 4.63-5.297 4.523-1.175-.048-2.373.143-3.461-.548-.15-.095-.539.18-.816.286-.518.2-1.034.402-1.431.556z" fill="#fff"/><path d="M164.752 56.628v1.114c-.387.019-.742.05-1.096.05-15.462.003-30.924.003-46.387-.001-2.483-.001-4.02-1.114-4.472-3.206-.311-1.442.389-3.106 1.654-3.931 1.382-.903 3.156-.956 4.387-.13 1.27.852 1.713 2.503 1.017 3.783-.645 1.187-2.168 1.709-3.452 1.181-1.187-.485-1.732-1.944-.907-2.793.392-.403 1.18-.523 1.798-.551.201-.01.703.817.597 1.024-.229.443-.761.731-1.305 1.199.461.012 1.08.202 1.489-.01.424-.22.822-.797.913-1.276.152-.812-.338-1.442-1.091-1.794-1.465-.687-3.498.274-3.915 1.831-.459 1.716.621 3.287 2.407 3.474.465.048.936.034 1.405.035 15.21.002 30.42.002 45.63.002l1.328-.001zM48.083 54.258c-.419-.367-.932-.66-1.177-1.102-.108-.193.334-.99.516-.987.626.013 1.418.073 1.832.452.868.794.387 2.312-.765 2.835-1.288.584-2.891.06-3.546-1.163-.7-1.306-.21-3.057 1.127-3.84 1.465-.858 2.922-.612 4.294.22 1.25.759 1.946 2.426 1.664 3.823-.326 1.62-1.271 2.712-2.9 3.118-.586.146-1.214.172-1.823.172-15.355.009-30.708.007-46.063.008H.062v-1.165H1.4c15.21 0 30.42 0 45.63-.003.504 0 1.014.015 1.51-.051 1.14-.154 1.914-.79 2.265-1.884.343-1.065.004-2.238-.86-2.911-.915-.712-1.962-.916-3.048-.479-.998.402-1.426 1.674-.92 2.52.45.752 1.434.886 2.106.437z" fill="#E4BC7D"/><path d="M143.882 54.193h-20.729c-.216 0-.473.067-.637-.026-.2-.113-.448-.365-.443-.551.005-.183.287-.486.475-.51.567-.07 1.148-.033 1.724-.033 6.224 0 12.449.001 18.674-.004.662 0 1.308-.028.936 1.124zM31.734 54.193c-3.31 0-6.62.007-9.93-.01-.405-.001-1.09.224-.962-.558.037-.226.583-.526.898-.527 6.692-.03 13.385-.026 20.077-.013.3 0 .793.05.866.22.258.59.022.907-.695.9-2.77-.024-5.54-.009-8.31-.009-.65-.003-1.296-.003-1.944-.003zM88.19 89.27c.433.389.936.711 1.218 1.168.095.153-.292.783-.597.961-.687.4-1.337.123-1.814-.46-.9-1.097-.158-2.726 1.35-3.004 1.62-.299 3.025.629 3.3 2.18.266 1.488-.916 3.115-2.471 3.405-2.465.459-4.65-1.073-4.938-3.464-.278-2.309 1.52-4.254 4.056-4.26 4.864-.011 9.728.059 14.591.06 3.845.002 7.688-.066 11.532-.07 3.236-.001 6.47.063 9.706.067 2.622.003 5.245-.044 7.867-.061 1.582-.01 3.163-.01 4.745-.011h27.976l.125 1.106h-1.127c-8.688 0-17.374.01-26.061-.003-6.224-.01-12.449-.067-18.675-.07-4.822-.002-9.645.057-14.467.068-5.26.012-10.518-.011-15.776.021-.663.005-1.383.137-1.973.422-1.353.651-1.793 2.377-1.05 3.705.69 1.235 2.566 1.822 3.77 1.179.937-.5 1.32-1.635.833-2.468-.46-.787-1.39-.93-2.12-.472zM.085 86.838c-.23-.817.005-1.069.758-1.068 9.083.02 18.167.012 27.25.01 4.238 0 8.476-.01 12.715.004 3.45.012 6.901.082 10.352.078 8.242-.011 16.484-.056 24.727-.071.642-.001 1.309.029 1.921.198 1.579.436 2.488 1.53 2.723 3.13.223 1.508-.291 2.778-1.535 3.665-1.29.918-2.734 1.11-4.19.426-1.344-.63-1.979-2.207-1.52-3.527.463-1.33 1.737-2.027 3.192-1.745 1.228.237 1.966 1.357 1.612 2.455-.053.168-.112.418-.233.466-.589.232-1.195.519-1.805.544-.218.01-.744-.82-.646-.987.27-.46.794-.77 1.198-1.123-.524-.45-1.459-.402-2.009.287-.537.672-.355 1.8.39 2.405 1.275 1.035 3.614.34 4.255-1.267.606-1.518-.132-3.147-1.703-3.621-.539-.164-1.134-.199-1.703-.2-5.656-.013-11.312.002-16.968-.011-4.534-.01-9.068-.07-13.6-.07-4.787 0-9.574.06-14.36.067-10.089.012-20.178.006-30.267.005-.174 0-.347-.03-.554-.05z" fill="#E4BC7D"/><path d="M94.578 90.237v-1.035h49.668v1.035H94.578zM20.534 90.22v-1.038h49.678l.048 1.038H20.534zM82.397 100c-.956-1.413-1.782-2.451-2.403-3.6-.665-1.229-.327-2.368.705-3.142.981-.737 2.45-.73 3.426.016 1.023.782 1.35 1.913.677 3.149-.623 1.144-1.452 2.178-2.405 3.577zm.005-1.851c.586-.948 1.068-1.602 1.413-2.322.307-.637.189-1.394-.494-1.646-.56-.206-1.34-.197-1.888.034-.66.278-.744 1.032-.422 1.67.35.688.806 1.323 1.391 2.264zM112.744 42.674c-.039.621-.066 1.073-.091 1.488-.964.333-1.915.554-2.757.984-.795.407-1.477 1.034-2.209 1.564-.107-.08-.216-.158-.323-.237.171-.37.261-.815.527-1.096 1.283-1.36 2.892-2.174 4.853-2.703z" fill="#E4BC7D"/></svg>